<?xml version="1.0" encoding="utf-8"?>
<!-- Generator: Adobe Illustrator 19.0.0, SVG Export Plug-In . SVG Version: 6.00 Build 0)  -->
<svg version="1.1" id="Layer_1" xmlns="http://www.w3.org/2000/svg" xmlns:xlink="http://www.w3.org/1999/xlink" x="0px" y="0px"
	 viewBox="0 0 159.3 60.7" style="enable-background:new 0 0 159.3 60.7;" xml:space="preserve">
<style type="text/css">
	.st0{fill:#FFFFFF;}
	.st1{clip-path:url(#SVGID_2_);fill:url(#SVGID_3_);}
</style>
<g>
	<path class="st0" d="M40.8,25.6c0-0.2-0.2-0.4-0.5-0.4H29.8c-0.6,0-1.1-0.5-1.1-1.1v-9.7c0-0.2-0.2-0.4-0.4-0.5
		c-1.9-0.2-4-0.3-6.3-0.3c-2.1,0-5.9,0.2-8.3,0.4v-1.2V1.3V1.1c0-0.6-0.5-1.1-1.1-1.1h-0.1H1.2H1.1C0.5,0,0,0.5,0,1.1v0.1v11.7v46.6
		c0,0.9,0.4,1.3,1.2,1.3h11.5c0.8,0,1.2-0.4,1.2-1.3v-34h6.1c7.1,0,7.7,0.6,7.7,11.5v22.4c0,0.9,0.3,1.3,1.1,1.3h11.4
		c0.8,0,1.2-0.4,1.2-1.3V32.8C41.2,29.8,41.2,27.8,40.8,25.6"/>
	<path class="st0" d="M110.4,54.8c0,4.2-1.3,6-4.8,6c-1.4,0-3.2,0-4.3-0.1c-0.2,0-0.2,0-0.2-0.2V49.2c0-0.2,0-0.2,0.2-0.2
		c1.1-0.1,2.9-0.1,4.3-0.1C109.1,48.8,110.4,50.6,110.4,54.8 M102.7,50.2v9.2h2.9c2.4,0,3.3-1.4,3.3-4.6c0-3.2-0.9-4.6-3.5-4.6
		H102.7z"/>
	<path class="st0" d="M114.2,49c0.2,0,0.2,0.1,0.2,0.2v11.3c0,0.2-0.1,0.2-0.2,0.2h-1.1c-0.2,0-0.2-0.1-0.2-0.2V49.2
		c0-0.2,0.1-0.2,0.2-0.2H114.2z"/>
	<path class="st0" d="M124.6,49c0.2,0,0.2,0.1,0.2,0.3V50c0,0.2-0.1,0.2-0.2,0.2h-3c-2.7,0-3.2,1-3.2,4.6c0,3.5,0.5,4.6,3.2,4.6h2.4
		v-4.3c0-0.2,0.1-0.2,0.2-0.2h1c0.2,0,0.2,0.1,0.2,0.2v4.6c0,0.2,0,0.2,0,0.3c-0.3,0.7-2.4,0.7-3.8,0.7c-3.8,0-4.7-1.3-4.7-5.9
		c0-4.6,0.9-6,4.7-6C122.6,48.8,123.8,48.9,124.6,49"/>
	<path class="st0" d="M129.2,49c0.2,0,0.2,0.1,0.2,0.2v11.3c0,0.2-0.1,0.2-0.2,0.2h-1.1c-0.2,0-0.2-0.1-0.2-0.2V49.2
		c0-0.2,0.1-0.2,0.2-0.2H129.2z"/>
	<path class="st0" d="M140.1,49c0.2,0,0.2,0.1,0.2,0.2v0.9c0,0.2-0.1,0.2-0.2,0.2h-3.5v10.2c0,0.2-0.1,0.2-0.2,0.2h-1.1
		c-0.2,0-0.2-0.1-0.2-0.2V50.4h-3.5c-0.2,0-0.2-0.1-0.2-0.2v-0.9c0-0.2,0.1-0.2,0.2-0.2H140.1z"/>
	<path class="st0" d="M147.3,50.7l2.7,9.8c0,0.2,0,0.2-0.2,0.2h-1.2c-0.1,0-0.2,0-0.2-0.2l-1-3.4h-4.7l-1,3.4c0,0.2-0.1,0.2-0.2,0.2
		h-1.2c-0.2,0-0.2,0-0.2-0.2l2.8-9.8c0.5-1.6,0.7-1.8,2.2-1.8C146.6,48.9,146.8,49.1,147.3,50.7 M144.3,51.1l-1.3,4.6h3.9l-1.2-4.6
		c-0.2-0.7-0.2-0.8-0.8-0.8C144.6,50.3,144.5,50.4,144.3,51.1"/>
	<path class="st0" d="M153.2,49c0.2,0,0.2,0.1,0.2,0.2v10.2h5.6c0.2,0,0.2,0.1,0.2,0.2v0.9c0,0.2-0.1,0.2-0.2,0.2h-7
		c-0.2,0-0.2-0.1-0.2-0.2V49.2c0-0.2,0.1-0.2,0.2-0.2H153.2z"/>
	<path class="st0" d="M62.6,13.7c0.8,0,1.2,0.5,1.2,1.3v44.5c0,0.9-0.4,1.3-1.2,1.3H51.3c-0.8,0-1.2-0.4-1.2-1.3V15
		c0-0.8,0.4-1.3,1.2-1.3H62.6z"/>
	<g>
		<defs>
			<path id="SVGID_1_" d="M37.5,0c-0.6,0-1.1,0.5-1.1,1.1v11.5c0,0.6,0.5,1.1,1.1,1.1H49c0.6,0,1.1-0.5,1.1-1.1V1.1
				C50.1,0.5,49.6,0,49,0H37.5z"/>
		</defs>
		<clipPath id="SVGID_2_">
			<use xlink:href="#SVGID_1_"  style="overflow:visible;"/>
		</clipPath>
		
			<linearGradient id="SVGID_3_" gradientUnits="userSpaceOnUse" x1="-796.3578" y1="559.9545" x2="-795.3578" y2="559.9545" gradientTransform="matrix(13.7343 0 0 -13.7343 10973.7539 7697.4385)">
			<stop  offset="0" style="stop-color:#F2915A"/>
			<stop  offset="1" style="stop-color:#EB5A4A"/>
		</linearGradient>
		<rect x="36.4" y="0" class="st1" width="13.7" height="13.7"/>
	</g>
	<path class="st0" d="M94.9,49.9C94.9,49.9,94.9,49.9,94.9,49.9C94.9,49.9,94.9,49.8,94.9,49.9c-0.1-0.3-0.2-0.5-0.4-0.7
		c-0.2-0.2-0.5-0.3-0.8-0.3h-4.3c-2.3-0.2-3.3-1-3.3-3.9V25.3h6.7c0.9,0,1.3-0.4,1.3-1.3v-7.6c0-0.8-0.4-1.2-1.3-1.2h-6.7V1.5
		c0-0.9-0.4-1.5-1.2-1.3l-11.4,3c-0.8,0.2-1.1,0.4-1.1,1.3V50c0,10.4,6,10.8,13.3,10.8c0.8,0,1.7,0,2.6,0c0,0,0,0,0,0h5.3
		c0.6,0,1.2-0.5,1.2-1.2v-0.5v-2.7v-1.8v-4.4v-0.1C94.9,50,94.9,50,94.9,49.9"/>
</g>
</svg>
